<mxfile host="app.diagrams.net" modified="2021-07-01T06:35:24.917Z" agent="5.0 (Windows NT 10.0; Win64; x64) AppleWebKit/537.36 (KHTML, like Gecko) Chrome/91.0.4472.114 Safari/537.36" etag="cr0pxHgJ1gJCsps-7f0b" version="14.8.2" type="github">
  <diagram id="vUl9VXo7g39ASS7Ow1n_" name="Page-1">
    <mxGraphModel dx="1422" dy="762" grid="1" gridSize="10" guides="1" tooltips="1" connect="1" arrows="1" fold="1" page="1" pageScale="1" pageWidth="827" pageHeight="1169" math="0" shadow="0">
      <root>
        <mxCell id="0" />
        <mxCell id="1" parent="0" />
        <mxCell id="LGwXLLXF-dzOJcVvsAQd-1" value="" style="edgeStyle=orthogonalEdgeStyle;rounded=0;orthogonalLoop=1;jettySize=auto;html=1;" edge="1" parent="1" source="LGwXLLXF-dzOJcVvsAQd-2" target="LGwXLLXF-dzOJcVvsAQd-4">
          <mxGeometry relative="1" as="geometry" />
        </mxCell>
        <mxCell id="LGwXLLXF-dzOJcVvsAQd-2" value="某个子公司发起建档，填写基本信息以及采购信息" style="rounded=0;whiteSpace=wrap;html=1;" vertex="1" parent="1">
          <mxGeometry x="120" y="200" width="120" height="60" as="geometry" />
        </mxCell>
        <mxCell id="LGwXLLXF-dzOJcVvsAQd-3" value="" style="edgeStyle=orthogonalEdgeStyle;rounded=0;orthogonalLoop=1;jettySize=auto;html=1;" edge="1" parent="1" source="LGwXLLXF-dzOJcVvsAQd-4" target="LGwXLLXF-dzOJcVvsAQd-8">
          <mxGeometry relative="1" as="geometry" />
        </mxCell>
        <mxCell id="LGwXLLXF-dzOJcVvsAQd-4" value="供应商记录初始化为建档待审核状态" style="rounded=0;whiteSpace=wrap;html=1;" vertex="1" parent="1">
          <mxGeometry x="120" y="320" width="120" height="60" as="geometry" />
        </mxCell>
        <mxCell id="LGwXLLXF-dzOJcVvsAQd-5" value="" style="edgeStyle=orthogonalEdgeStyle;rounded=0;orthogonalLoop=1;jettySize=auto;html=1;" edge="1" parent="1" source="LGwXLLXF-dzOJcVvsAQd-8" target="LGwXLLXF-dzOJcVvsAQd-11">
          <mxGeometry relative="1" as="geometry" />
        </mxCell>
        <mxCell id="LGwXLLXF-dzOJcVvsAQd-6" style="edgeStyle=orthogonalEdgeStyle;rounded=0;orthogonalLoop=1;jettySize=auto;html=1;entryX=0.5;entryY=0;entryDx=0;entryDy=0;" edge="1" parent="1" source="LGwXLLXF-dzOJcVvsAQd-8" target="LGwXLLXF-dzOJcVvsAQd-26">
          <mxGeometry relative="1" as="geometry" />
        </mxCell>
        <mxCell id="LGwXLLXF-dzOJcVvsAQd-7" value="否" style="edgeLabel;html=1;align=center;verticalAlign=middle;resizable=0;points=[];" vertex="1" connectable="0" parent="LGwXLLXF-dzOJcVvsAQd-6">
          <mxGeometry x="-0.2833" y="2" relative="1" as="geometry">
            <mxPoint as="offset" />
          </mxGeometry>
        </mxCell>
        <mxCell id="LGwXLLXF-dzOJcVvsAQd-8" value="集团审核" style="rhombus;whiteSpace=wrap;html=1;" vertex="1" parent="1">
          <mxGeometry x="120" y="440" width="120" height="80" as="geometry" />
        </mxCell>
        <mxCell id="LGwXLLXF-dzOJcVvsAQd-9" style="edgeStyle=orthogonalEdgeStyle;rounded=0;orthogonalLoop=1;jettySize=auto;html=1;" edge="1" parent="1" source="LGwXLLXF-dzOJcVvsAQd-11" target="LGwXLLXF-dzOJcVvsAQd-19">
          <mxGeometry relative="1" as="geometry" />
        </mxCell>
        <mxCell id="LGwXLLXF-dzOJcVvsAQd-10" value="是" style="edgeLabel;html=1;align=center;verticalAlign=middle;resizable=0;points=[];" vertex="1" connectable="0" parent="LGwXLLXF-dzOJcVvsAQd-9">
          <mxGeometry x="-0.3385" relative="1" as="geometry">
            <mxPoint as="offset" />
          </mxGeometry>
        </mxCell>
        <mxCell id="LGwXLLXF-dzOJcVvsAQd-11" value="供应商记录流转为已核准状态" style="rounded=0;whiteSpace=wrap;html=1;" vertex="1" parent="1">
          <mxGeometry x="120" y="580" width="120" height="60" as="geometry" />
        </mxCell>
        <mxCell id="LGwXLLXF-dzOJcVvsAQd-12" value="" style="swimlane;startSize=0;dashed=1;fillColor=none;gradientColor=none;" vertex="1" parent="1">
          <mxGeometry x="60" y="850" width="460" height="550" as="geometry" />
        </mxCell>
        <mxCell id="LGwXLLXF-dzOJcVvsAQd-13" style="edgeStyle=orthogonalEdgeStyle;rounded=0;orthogonalLoop=1;jettySize=auto;html=1;entryX=0.5;entryY=0;entryDx=0;entryDy=0;" edge="1" parent="LGwXLLXF-dzOJcVvsAQd-12" source="LGwXLLXF-dzOJcVvsAQd-15" target="LGwXLLXF-dzOJcVvsAQd-17">
          <mxGeometry relative="1" as="geometry" />
        </mxCell>
        <mxCell id="LGwXLLXF-dzOJcVvsAQd-14" style="edgeStyle=orthogonalEdgeStyle;rounded=0;orthogonalLoop=1;jettySize=auto;html=1;entryX=0.5;entryY=0;entryDx=0;entryDy=0;" edge="1" parent="LGwXLLXF-dzOJcVvsAQd-12" source="LGwXLLXF-dzOJcVvsAQd-15" target="LGwXLLXF-dzOJcVvsAQd-24">
          <mxGeometry relative="1" as="geometry" />
        </mxCell>
        <mxCell id="LGwXLLXF-dzOJcVvsAQd-15" value="子公司审核" style="rhombus;whiteSpace=wrap;html=1;fillColor=none;" vertex="1" parent="LGwXLLXF-dzOJcVvsAQd-12">
          <mxGeometry x="60" y="110" width="120" height="80" as="geometry" />
        </mxCell>
        <mxCell id="LGwXLLXF-dzOJcVvsAQd-27" style="edgeStyle=orthogonalEdgeStyle;rounded=0;orthogonalLoop=1;jettySize=auto;html=1;entryX=0.5;entryY=0;entryDx=0;entryDy=0;" edge="1" parent="LGwXLLXF-dzOJcVvsAQd-12" source="LGwXLLXF-dzOJcVvsAQd-17" target="LGwXLLXF-dzOJcVvsAQd-23">
          <mxGeometry relative="1" as="geometry" />
        </mxCell>
        <mxCell id="LGwXLLXF-dzOJcVvsAQd-17" value="更新" style="rounded=0;whiteSpace=wrap;html=1;" vertex="1" parent="LGwXLLXF-dzOJcVvsAQd-12">
          <mxGeometry x="60" y="240" width="120" height="60" as="geometry" />
        </mxCell>
        <mxCell id="LGwXLLXF-dzOJcVvsAQd-18" style="edgeStyle=orthogonalEdgeStyle;rounded=0;orthogonalLoop=1;jettySize=auto;html=1;entryX=0.5;entryY=0;entryDx=0;entryDy=0;" edge="1" parent="LGwXLLXF-dzOJcVvsAQd-12" source="LGwXLLXF-dzOJcVvsAQd-19" target="LGwXLLXF-dzOJcVvsAQd-15">
          <mxGeometry relative="1" as="geometry" />
        </mxCell>
        <mxCell id="LGwXLLXF-dzOJcVvsAQd-19" value="变更审核状态" style="rounded=0;whiteSpace=wrap;html=1;" vertex="1" parent="LGwXLLXF-dzOJcVvsAQd-12">
          <mxGeometry x="60" y="20" width="120" height="60" as="geometry" />
        </mxCell>
        <mxCell id="LGwXLLXF-dzOJcVvsAQd-23" value="保留为已引入状态" style="rounded=0;whiteSpace=wrap;html=1;fillColor=none;gradientColor=none;" vertex="1" parent="LGwXLLXF-dzOJcVvsAQd-12">
          <mxGeometry x="60" y="370" width="120" height="60" as="geometry" />
        </mxCell>
        <mxCell id="LGwXLLXF-dzOJcVvsAQd-28" style="edgeStyle=orthogonalEdgeStyle;rounded=0;orthogonalLoop=1;jettySize=auto;html=1;entryX=1;entryY=0.5;entryDx=0;entryDy=0;" edge="1" parent="LGwXLLXF-dzOJcVvsAQd-12" source="LGwXLLXF-dzOJcVvsAQd-24" target="LGwXLLXF-dzOJcVvsAQd-23">
          <mxGeometry relative="1" as="geometry" />
        </mxCell>
        <mxCell id="LGwXLLXF-dzOJcVvsAQd-24" value="不更新" style="rounded=0;whiteSpace=wrap;html=1;fillColor=none;gradientColor=none;" vertex="1" parent="LGwXLLXF-dzOJcVvsAQd-12">
          <mxGeometry x="260" y="245" width="120" height="60" as="geometry" />
        </mxCell>
        <mxCell id="LGwXLLXF-dzOJcVvsAQd-25" value="公司层状态" style="text;html=1;strokeColor=none;fillColor=none;align=center;verticalAlign=middle;whiteSpace=wrap;rounded=0;" vertex="1" parent="LGwXLLXF-dzOJcVvsAQd-12">
          <mxGeometry x="250" y="20" width="170" height="20" as="geometry" />
        </mxCell>
        <mxCell id="LGwXLLXF-dzOJcVvsAQd-26" value="供应商为已驳回状态" style="rounded=0;whiteSpace=wrap;html=1;fillColor=none;gradientColor=none;" vertex="1" parent="1">
          <mxGeometry x="320" y="580" width="120" height="60" as="geometry" />
        </mxCell>
      </root>
    </mxGraphModel>
  </diagram>
</mxfile>
